<svg xmlns="http://www.w3.org/2000/svg" viewBox="0 0 609.06 170.29"><defs><style>.cls-1{fill:#fff;}</style></defs><g id="レイヤー_2" data-name="レイヤー 2"><g id="tx"><path class="cls-1" d="M143.22,92.64a3.27,3.27,0,0,1-.65-.06,3.16,3.16,0,0,0-.64-.06,10.89,10.89,0,0,0-3.33,1.4q-2.62,1.41-6.66,3.16a59.13,59.13,0,0,1-9.18,3A44,44,0,0,1,112,101.4a52.84,52.84,0,0,1-14.14-1.87,35.2,35.2,0,0,1-12-5.78A28.5,28.5,0,0,1,77.65,84a29.31,29.31,0,0,1-3-13.67,29.42,29.42,0,0,1,3-13.62,29,29,0,0,1,8.24-9.87,36.28,36.28,0,0,1,12-6,49.86,49.86,0,0,1,14.14-2,57.53,57.53,0,0,1,10.81.93c3.24.63,6.06,1.29,8.48,2a47,47,0,0,1,5.72,2,10.44,10.44,0,0,0,2.57.93,1.2,1.2,0,0,0,1-.58l.64-.94L143,44.61l-9.11,14.14-1.17-.82a4,4,0,0,0-.06-.7c0-.24-.1-.51-.17-.82-.16-.86-.94-1.73-2.34-2.63a23.84,23.84,0,0,0-5.2-2.4,54.45,54.45,0,0,0-6.55-1.75,31.92,31.92,0,0,0-6.37-.7,31.5,31.5,0,0,0-9.4,1.4,23.58,23.58,0,0,0-7.84,4.09A20,20,0,0,0,89.46,61a19.41,19.41,0,0,0-2,8.94,19.41,19.41,0,0,0,2,8.94,19.91,19.91,0,0,0,5.31,6.6,23.4,23.4,0,0,0,7.84,4.09A31.5,31.5,0,0,0,112,91a37.55,37.55,0,0,0,7.83-.87,47.1,47.1,0,0,0,7.48-2.23,24.59,24.59,0,0,0,5.67-3c1.52-1.13,2.28-2.2,2.28-3.22a2.19,2.19,0,0,0-.47-1.4l1.64-.94,7.71,12.39Z"/><path class="cls-1" d="M203.47,95.39a15.71,15.71,0,0,1-1.55-.79,2.34,2.34,0,0,1-.9-1.09l-17.2-33.66c-.38-.7-.66-1.27-.86-1.69a2.88,2.88,0,0,1-.22-1.1c0-.56.18-.66.27-.71a5.45,5.45,0,0,1,1.06-.41l.39-.12V53.35H169.38v2.48l.4.11a4.2,4.2,0,0,1,1.12.46c.09,0,.29.15.29.66a3,3,0,0,1-.38,1.31c-.31.61-.66,1.26-1.06,2L154.46,92.51a15.06,15.06,0,0,1-1.15,2,1.81,1.81,0,0,1-1.3.84l-.49.07V98h12.87V95.33h-.57c-.38,0-1,0-1-.32a5.54,5.54,0,0,1,.76-2.23l2.81-5.58h19.49l3,5.82a4.49,4.49,0,0,1,.6,1.9c0,.06,0,.14-.2.23a1.37,1.37,0,0,1-.57.18h-.56V98h15.67V95.54Zm-27.2-28.93L182.38,80H169.44Z"/><path class="cls-1" d="M253.64,56.38c-3.1-2-7.41-3-12.77-3H211.2V56h.57c1.13,0,2.49.16,2.49.92V94.42c0,.76-1.36.93-2.49.93h-.57V98h16.24v-2.6h-.55c-2.09,0-2.09-.7-2.09-.93V80.27h16.07c5.36,0,9.67-1,12.77-3s4.8-5.58,4.8-10.43-1.61-8.39-4.8-10.44M241.85,71.54h-17V62.08h17a9.08,9.08,0,0,1,4.4,1c1.12.63,1.66,1.84,1.66,3.74s-.54,3.11-1.66,3.72a9.05,9.05,0,0,1-4.4,1"/><path class="cls-1" d="M311.1,87.08V99.53h-2.6V99c0-.78-.25-.84-.34-.86a9.76,9.76,0,0,0-1.92-.16H267.16v-2.6h.56a1,1,0,0,0,.68-.26c.06,0,.25-.19.25-.67V56.89a.82.82,0,0,0-.25-.69,1,1,0,0,0-.68-.23h-.56V53.35h38.26a3.47,3.47,0,0,0,2.09-.42,1.18,1.18,0,0,0,.5-1v-.55h2.6v12H308v-.57a1,1,0,0,0-.45-.9,4.3,4.3,0,0,0-2.14-.36H279.19v9.14h15.65a5.19,5.19,0,0,0,2.31-.41c.5-.24.6-1.13.6-1.85v-.55h2.6v14h-2.6v-.57c0-.72-.12-1.65-.64-2a4.61,4.61,0,0,0-2.27-.46H279.19v10.3h27.05a2.8,2.8,0,0,0,1.69-.48,1.26,1.26,0,0,0,.57-1.12v-.56Z"/><path class="cls-1" d="M391.78,53.35V56h-.55c-.27,0-.59.07-.87.65s-.63,1.48-1,2.45L376.58,93a4.31,4.31,0,0,0-.34,1.46,1,1,0,0,0,.27.66,1,1,0,0,0,.74.27h.57V98H363.64V95.5l.37-.12a4.12,4.12,0,0,0,.93-.45.43.43,0,0,0,.27-.43,3.82,3.82,0,0,0-.27-1.3q-.3-.84-.93-2.28l-9.07-23.25L346.36,90.4a15.08,15.08,0,0,0-1.2,3.86c0,.79.35,1,.68,1.12l.4.12V98H332.29v-2.6h.57a1.56,1.56,0,0,0,.75-.2c.12-.06.18-.11.18-.31a3.34,3.34,0,0,0-.26-1.21l-.61-1.57L319.69,57.92a9.21,9.21,0,0,0-.65-1.45,1.17,1.17,0,0,0-.84-.52l-.45-.09V53.35h13.93V56h-.55c-.27,0-.69,0-.69,1a4.05,4.05,0,0,0,.12.88,12.51,12.51,0,0,0,.6,1.82l8.4,21.82,8.32-22.15a11.51,11.51,0,0,0,.51-1.54,3.33,3.33,0,0,0,.11-.83c0-1-.35-1-.51-1h-.56V53.35h15.25V56h-.55c-.27,0-.32.08-.35.13a1.16,1.16,0,0,0-.18.63,8,8,0,0,0,.8,2.58l8.4,22.17,8.48-22.63a4.81,4.81,0,0,0,.56-2.05.88.88,0,0,0-.27-.57A.78.78,0,0,0,379,56h-.56V53.35Z"/><path class="cls-1" d="M412.78,56.89V94.42c0,.3,0,.93,1.58.93h.57V98H400.09v-2.6h.55c1.59,0,1.59-.63,1.59-.93V56.89c0-.3,0-.92-1.59-.92h-.55V53.35h14.84V56h-.57c-1.58,0-1.58.62-1.58.92"/><path class="cls-1" d="M477,56.89V94.42c0,.57.17.93,1,.93h.55V98H464.06v-2.6h.57c.51,0,.51-.14.51-.18s0-.39-1.15-1.51L439.73,68.37V94.42c0,.33,0,.93,1.33.93h.57V98H428.26v-2.6h.57c.84,0,1-.36,1-.93V56.89c0-.57-.18-.92-1-.92h-.57V53.35h15.27V56H443c-.1,0-.1.05-.1.26,0,.05.06.48,1.49,1.92l22.76,23.64V56.89c0-.3,0-.92-1.58-.92H465V53.35h13.6V56H478c-.85,0-1,.35-1,.92"/><path class="cls-1" d="M536.12,87.08V99.53H533.5V99c0-.78-.25-.84-.34-.86a9.68,9.68,0,0,0-1.92-.16H492.18v-2.6h.55a.94.94,0,0,0,.67-.26c.08,0,.25-.19.25-.67V56.89c0-.48-.17-.63-.25-.69a1,1,0,0,0-.67-.23h-.55V53.35h38.24a3.37,3.37,0,0,0,2.09-.42,1.13,1.13,0,0,0,.5-1v-.55h2.6v12H533v-.57a1,1,0,0,0-.45-.9,4.23,4.23,0,0,0-2.14-.36H504.21v9.14h15.63a5.24,5.24,0,0,0,2.32-.41c.49-.24.6-1.13.6-1.85v-.55h2.6v14h-2.6v-.57c0-.72-.11-1.65-.65-2a4.56,4.56,0,0,0-2.27-.46H504.21v10.3h27a2.89,2.89,0,0,0,1.71-.48,1.29,1.29,0,0,0,.55-1.12v-.56Z"/><rect class="cls-1" x="178.04" y="132.04" width="5.9" height="1.3"/><path class="cls-1" d="M191.1,137.13a2,2,0,0,0,.65.43,3,3,0,0,0,1.19.18,4.2,4.2,0,0,0,1.25-.18,3,3,0,0,0,1-.52,2.77,2.77,0,0,0,.68-.84,2.4,2.4,0,0,0,.25-1.12,2,2,0,0,0-.51-1.4,5.3,5.3,0,0,0-1.28-1c-.51-.29-1.06-.58-1.66-.86a9,9,0,0,1-1.67-1,5.07,5.07,0,0,1-1.27-1.38,4.11,4.11,0,0,1-.2-3.59,3.2,3.2,0,0,1,.89-1.17,4,4,0,0,1,1.37-.74,5.5,5.5,0,0,1,1.78-.27,12.81,12.81,0,0,1,2.33.2,6.89,6.89,0,0,1,1.66.5,6.39,6.39,0,0,1-.05.82c0,.31-.08.64-.12,1s-.11.66-.16,1-.11.59-.17.82h-.54l-.84-2.86a3.5,3.5,0,0,0-1-.25,8.09,8.09,0,0,0-1.23-.09,2.49,2.49,0,0,0-1.74.6,2.38,2.38,0,0,0-.14,3.11,5.26,5.26,0,0,0,1.3,1c.52.31,1.08.61,1.67.89a10.8,10.8,0,0,1,1.68,1,5.13,5.13,0,0,1,1.29,1.34,3.39,3.39,0,0,1,.52,1.92,4.2,4.2,0,0,1-.35,1.72,3.64,3.64,0,0,1-1,1.31,4.47,4.47,0,0,1-1.59.84,7.06,7.06,0,0,1-2.14.29,8.13,8.13,0,0,1-2.36-.31,4.46,4.46,0,0,1-1.49-.67c0-.24,0-.52.08-.86s.07-.68.12-1,.1-.7.16-1,.11-.62.17-.86h.54Z"/><path class="cls-1" d="M202.54,133.34a7.22,7.22,0,0,1,.35-2.33,4.77,4.77,0,0,1,1-1.72,4.32,4.32,0,0,1,1.56-1.06,5.27,5.27,0,0,1,2-.37,5.64,5.64,0,0,1,2.24.4,3.92,3.92,0,0,1,1.54,1.12,4.6,4.6,0,0,1,.88,1.72,8.23,8.23,0,0,1,.28,2.24,5.71,5.71,0,0,1-1.34,4.06,4.69,4.69,0,0,1-3.6,1.42,5.69,5.69,0,0,1-2.17-.38,3.93,3.93,0,0,1-1.53-1.11,4.66,4.66,0,0,1-.91-1.74,7.51,7.51,0,0,1-.31-2.25m2,0a8.46,8.46,0,0,0,.18,1.78,4.54,4.54,0,0,0,.57,1.46,2.76,2.76,0,0,0,1,1,3,3,0,0,0,1.51.35,2.15,2.15,0,0,0,1.85-1.11,6.45,6.45,0,0,0,.72-3.45,8.42,8.42,0,0,0-.18-1.79,4.65,4.65,0,0,0-.55-1.44,2.79,2.79,0,0,0-1-1,2.64,2.64,0,0,0-1.41-.36,2.29,2.29,0,0,0-2,1.11,6.17,6.17,0,0,0-.76,3.45"/><path class="cls-1" d="M217.38,134.43q0-1.32.06-2.58c0-.85.06-1.69.06-2.53l-1.38-.16v-.55c.45-.16.91-.31,1.37-.44s.93-.23,1.38-.31h.52q0,1.58-.06,3.12c-.05,1-.07,2.06-.07,3.07a9.26,9.26,0,0,0,.1,1.47,3.25,3.25,0,0,0,.33,1.09,1.73,1.73,0,0,0,.66.68,2.12,2.12,0,0,0,1.07.24,2.1,2.1,0,0,0,1.58-.68,4.87,4.87,0,0,0,1-1.77v-5.76l-1.36-.16v-.55c.43-.16.88-.31,1.35-.44s.93-.23,1.37-.31h.52v9.52l1.39.17V138q-.62.27-1.23.48a7.59,7.59,0,0,1-1.29.31h-.52l-.15-2.49H224a3.47,3.47,0,0,1-.36.89,3.54,3.54,0,0,1-.69.82,3.39,3.39,0,0,1-.95.59,2.76,2.76,0,0,1-1.16.23,5,5,0,0,1-1.47-.19,2.33,2.33,0,0,1-1.08-.71,3.29,3.29,0,0,1-.67-1.35,8.47,8.47,0,0,1-.23-2.14"/><path class="cls-1" d="M230.6,128.64a5.46,5.46,0,0,1,1.68-.74v-1.78a5.09,5.09,0,0,1,.64-.41,7.79,7.79,0,0,1,.72-.34h.52v2.74h3.14v1.09h-3.14v6a3,3,0,0,0,.4,1.77,1.41,1.41,0,0,0,1.19.52c.25,0,.57,0,.94-.05a4.35,4.35,0,0,0,1-.2l.15.31a2.93,2.93,0,0,1-.47.4,4.46,4.46,0,0,1-.69.39,5,5,0,0,1-.85.32,3.68,3.68,0,0,1-.94.13,2.48,2.48,0,0,1-1.91-.71,3.33,3.33,0,0,1-.66-2.3V129.2H230.6Z"/><path class="cls-1" d="M252.49,138.57H248v-.52a6.73,6.73,0,0,1,1.26-.5v-4.9a6,6,0,0,0-.46-2.56,1.71,1.71,0,0,0-1.68-.93,2.23,2.23,0,0,0-1,.2,3.07,3.07,0,0,0-1.4,1.23,3.08,3.08,0,0,0-.38.85v6.11a6,6,0,0,1,.64.19,2.23,2.23,0,0,1,.59.31v.52h-4.49v-.52a5.82,5.82,0,0,1,1.38-.5V124.3l-1.59-.17v-.54a9.08,9.08,0,0,1,1.41-.44c.54-.12,1-.23,1.54-.31h.52v7.38h0a4.73,4.73,0,0,1,1.27-1.67,3,3,0,0,1,2-.69,5.27,5.27,0,0,1,1.49.2,2.25,2.25,0,0,1,1.1.7,3.29,3.29,0,0,1,.67,1.35,8.47,8.47,0,0,1,.23,2.14v5.3c.24,0,.47.12.71.19a2.4,2.4,0,0,1,.67.31Z"/><path class="cls-1" d="M267.6,138.57H263V138a8.4,8.4,0,0,1,1.51-.51l5.29-13.79h.61l5.29,13.79.83.19a2.85,2.85,0,0,1,.76.32v.6h-5.39V138c.28-.11.56-.21.86-.3l.85-.21-1.41-3.83h-5l-1.37,3.83a7.4,7.4,0,0,1,1.8.51Zm0-6h4.2l-1.64-4.44-.4-1.8h0l-.52,1.84Z"/><path class="cls-1" d="M286.16,122.84a3.63,3.63,0,0,1,.44,0l.52,0,.53.08.43.12c0,.46-.1.89-.17,1.29a7.2,7.2,0,0,1-.29,1.07h-.52l-.92-1.8a3.8,3.8,0,0,0-1,.13,1.36,1.36,0,0,0-.72.48,2.41,2.41,0,0,0-.42,1,9.18,9.18,0,0,0-.13,1.75v1.05h2.4v1.09h-2.4v8.35a8,8,0,0,1,2,.5v.52h-5.28v-.52a4.37,4.37,0,0,1,1.39-.5V129.2h-1.6v-.56a5.65,5.65,0,0,1,1.6-.72v-.73a6.17,6.17,0,0,1,.31-2.14,3.11,3.11,0,0,1,.88-1.34,3,3,0,0,1,1.33-.68,6.59,6.59,0,0,1,1.64-.19"/><path class="cls-1" d="M294.53,129.68a2.36,2.36,0,0,0-.58.51,3.53,3.53,0,0,0-.61,1.14v6.22a5.05,5.05,0,0,1,.83.16,3.7,3.7,0,0,1,.84.34v.52h-4.94v-.52a3.84,3.84,0,0,1,.71-.31c.23-.07.45-.14.67-.19v-8.23l-1.38-.16v-.55a9.76,9.76,0,0,1,1.38-.47c.48-.12.93-.21,1.36-.28h.53v2.22h.08a3.55,3.55,0,0,1,.53-.84,4.39,4.39,0,0,1,.8-.75,3.39,3.39,0,0,1,1-.51,2.56,2.56,0,0,1,1.1-.12,3.29,3.29,0,0,1,.26.6c.08.21.15.44.22.68v.54Z"/><path class="cls-1" d="M305.47,138.57h-4.64v-.52a3.75,3.75,0,0,1,.65-.28c.22-.08.46-.15.73-.22v-8.23l-1.38-.16v-.55a12.55,12.55,0,0,1,1.31-.44c.48-.12.95-.23,1.43-.31h.52v9.69a7.67,7.67,0,0,1,.75.22,3,3,0,0,1,.63.28Zm-3.66-14a1.16,1.16,0,0,1,.37-.9,1.39,1.39,0,0,1,1-.33,1.37,1.37,0,0,1,1,.33,1.19,1.19,0,0,1,.36.9,1.12,1.12,0,0,1-.36.89,1.37,1.37,0,0,1-1,.33,1.39,1.39,0,0,1-1-.33,1.1,1.1,0,0,1-.37-.89"/><path class="cls-1" d="M317.71,137.11a3,3,0,0,1-1.22,1.22,3.83,3.83,0,0,1-2,.49,5.57,5.57,0,0,1-2.14-.38,4,4,0,0,1-1.52-1.11,4.81,4.81,0,0,1-.91-1.74,7.9,7.9,0,0,1-.3-2.25,5.79,5.79,0,0,1,1.3-4.07,4.55,4.55,0,0,1,3.53-1.41,8.4,8.4,0,0,1,1.83.18,5.34,5.34,0,0,1,1.37.47c0,.46-.12,1-.23,1.55a6.54,6.54,0,0,1-.42,1.42h-.56l-.88-2.49a1.19,1.19,0,0,0-.34-.16,2.85,2.85,0,0,0-.62-.05,2.59,2.59,0,0,0-2.2,1,6,6,0,0,0-.77,3.5,5.38,5.38,0,0,0,.22,1.55,4,4,0,0,0,.66,1.35,3.46,3.46,0,0,0,1.13.95,3.38,3.38,0,0,0,1.58.36,3.54,3.54,0,0,0,1.28-.21,3.8,3.8,0,0,0,.92-.5Z"/><path class="cls-1" d="M329.62,135.83c0,.31,0,.57,0,.8s0,.46,0,.71l1.45.21V138a7.92,7.92,0,0,1-1.17.48,8.74,8.74,0,0,1-1.22.31h-.52a3,3,0,0,1-.25-1.05c0-.39-.05-.81-.07-1.27h-.1a3.11,3.11,0,0,1-.33.85,3,3,0,0,1-.62.76,3.18,3.18,0,0,1-.91.54,3.21,3.21,0,0,1-1.2.21,2.86,2.86,0,0,1-2.08-.77,2.67,2.67,0,0,1-.8-2,2.91,2.91,0,0,1,.38-1.58,2.6,2.6,0,0,1,1.14-1,6.41,6.41,0,0,1,1.87-.51c.73-.11,1.59-.19,2.57-.25a11.46,11.46,0,0,0,.05-1.62,3.91,3.91,0,0,0-.23-1.23,1.79,1.79,0,0,0-.58-.8,1.69,1.69,0,0,0-1-.28l-.66,0a2.38,2.38,0,0,0-.72.18l-1,2.51h-.55a13,13,0,0,1-.36-1.3,7.53,7.53,0,0,1-.2-1.32,7,7,0,0,1,1.77-.75,8,8,0,0,1,2.16-.27,4.1,4.1,0,0,1,1.71.3,2.5,2.5,0,0,1,1,.79,2.69,2.69,0,0,1,.44,1.06,6.8,6.8,0,0,1,.1,1.18c0,.83,0,1.64-.05,2.41s-.05,1.52-.05,2.23m-4,1.7a1.92,1.92,0,0,0,.92-.21,2.5,2.5,0,0,0,.67-.5,3.27,3.27,0,0,0,.44-.6,2.64,2.64,0,0,0,.23-.51v-2.2a13.48,13.48,0,0,0-2,.12,3.49,3.49,0,0,0-1.21.4,1.47,1.47,0,0,0-.61.68,2.45,2.45,0,0,0-.17.93,2,2,0,0,0,.47,1.4,1.64,1.64,0,0,0,1.25.49"/><path class="cls-1" d="M346.19,138.57h-4.5v-.52a7.29,7.29,0,0,1,1.24-.5v-5a5.77,5.77,0,0,0-.46-2.51,1.7,1.7,0,0,0-1.68-.92,2.4,2.4,0,0,0-1,.19,2.44,2.44,0,0,0-.79.51,3.54,3.54,0,0,0-.6.73,3.88,3.88,0,0,0-.4.85v6.11a3.73,3.73,0,0,1,1.26.5v.52h-4.52v-.52a6.91,6.91,0,0,1,1.38-.5v-8.23l-1.38-.16v-.55a10.71,10.71,0,0,1,1.25-.42c.48-.12,1-.23,1.49-.33H338v2.34h0a4.75,4.75,0,0,1,1.27-1.65,3,3,0,0,1,2-.69,5.22,5.22,0,0,1,1.49.2,2.25,2.25,0,0,1,1.1.7,3.29,3.29,0,0,1,.67,1.35,8.47,8.47,0,0,1,.23,2.14v5.3a3.61,3.61,0,0,1,1.38.5Z"/><path class="cls-1" d="M373.31,125.06a7.38,7.38,0,0,1-.88-.2c-.29-.09-.6-.2-.92-.33v-.6h4.69v.6a10,10,0,0,1-1.51.53l-3.49,13.51-1.3.25-3.37-11.38-3.3,11.13-1.28.25-3.7-13.76c-.28-.07-.55-.15-.82-.24a7.15,7.15,0,0,1-.77-.29v-.6h5.44v.6l-.82.28a7.35,7.35,0,0,1-.9.25l2.07,8.43.46,2.72h0l.74-2.76,2.82-9.52h.71l3,9.52.6,2.72h.05l.48-2.77Z"/><path class="cls-1" d="M385.07,138.57h-5.36V138a6.13,6.13,0,0,1,1.68-.51v-12.4a8.67,8.67,0,0,1-.84-.22c-.28-.09-.56-.2-.84-.31v-.6h5.36v.6a7.6,7.6,0,0,1-.81.31c-.3.09-.58.16-.86.22v12.4l.88.21a4.83,4.83,0,0,1,.79.3Z"/><path class="cls-1" d="M398.78,123.93h4.52v.6a6.64,6.64,0,0,1-1.72.84v13.45h-1.19l-7.6-11.53-.81-1.63h-.07l.19,1.63v9.94a5.46,5.46,0,0,1,1.61.74v.6h-4.52V138a5.59,5.59,0,0,1,.81-.41,9.63,9.63,0,0,1,.91-.33v-12l-.83-.35-.76-.38v-.58h3.54l6.59,9.94,1,1.8h.08l-.1-1.8v-8.5c-.29-.13-.58-.26-.85-.4a6.89,6.89,0,0,1-.76-.44Z"/><path class="cls-1" d="M416.94,123.93c0,.55,0,1.12-.07,1.68s-.09,1.13-.16,1.7h-.54l-.86-2.3h-4.56v5.55h3.41L415,129h.53a37.3,37.3,0,0,1,0,4.23H415l-.81-1.59h-3.41v5.83h4.81l1-2.51h.52a17.64,17.64,0,0,1,.21,1.78,15.76,15.76,0,0,1,0,1.82H407V138a7,7,0,0,1,1.72-.51v-12.4c-.28-.06-.57-.13-.86-.22s-.58-.2-.86-.31v-.6Z"/><rect class="cls-1" x="422.59" y="132.04" width="5.9" height="1.3"/><path class="cls-1" d="M609.06,159.17l-10.92-10.92V10.92H22.89L12,0h597.1ZM601.13,147l4.94,4.94V3H19.18l4.95,4.94h577Z"/><path class="cls-1" d="M597.4,170.29H0V13.23H2.41l8.51,8.51V159.37H586.48ZM3,167.3h587.2l-5-4.94H7.93V23L3,18Z"/></g></g></svg>